<?xml version="1.0" encoding="utf-8"?>
<!-- Generator: Adobe Illustrator 23.0.1, SVG Export Plug-In . SVG Version: 6.00 Build 0)  -->
<svg version="1.1" id="Layer_1" xmlns="http://www.w3.org/2000/svg" xmlns:xlink="http://www.w3.org/1999/xlink" x="0px" y="0px"
	 viewBox="0 0 512 640" style="enable-background:new 0 0 512 640;" xml:space="preserve">
<g>
	<g>
		<path d="M465,16c-11.8,0-406.2,0-418,0c-17.1,0-31,13.9-31,31c0,11.8,0,406.2,0,418c0,17.1,13.9,31,31,31c11.8,0,406.2,0,418,0
			c17.1,0,31-13.9,31-31c0-11.8,0-406.2,0-418C496,29.9,482.1,16,465,16z M476,47v199H266V36h199C471.1,36,476,40.9,476,47z M36,47
			c0-6.1,4.9-11,11-11h199v210H36V47z M36,465V266h210v210H47C40.9,476,36,471.1,36,465z M476,465c0,6.1-4.9,11-11,11H266V266h210
			V465z"/>
		<path d="M211,131h-65V66c0-5.5-4.5-10-10-10s-10,4.5-10,10v65H61c-5.5,0-10,4.5-10,10s4.5,10,10,10h65v65c0,5.5,4.5,10,10,10
			s10-4.5,10-10v-65h65c5.5,0,10-4.5,10-10S216.5,131,211,131z"/>
		<path d="M196.1,310.9c-3.9-3.9-10.2-3.9-14.1,0l-46,46l-46-46c-3.9-3.9-10.2-3.9-14.1,0c-3.9,3.9-3.9,10.2,0,14.1l46,46l-46,46
			c-3.9,3.9-3.9,10.2,0,14.1c3.9,3.9,10.2,3.9,14.1,0l46-46l46,46c3.9,3.9,10.2,3.9,14.1,0c3.9-3.9,3.9-10.2,0-14.1l-46-46l46-46
			C200,321.1,200,314.8,196.1,310.9z"/>
		<path d="M296,151h150c5.5,0,10-4.5,10-10s-4.5-10-10-10H296c-5.5,0-10,4.5-10,10S290.5,151,296,151z"/>
		<path d="M296,336h150c5.5,0,10-4.5,10-10s-4.5-10-10-10H296c-5.5,0-10,4.5-10,10S290.5,336,296,336z"/>
		<path d="M296,426h150c5.5,0,10-4.5,10-10s-4.5-10-10-10H296c-5.5,0-10,4.5-10,10S290.5,426,296,426z"/>
	</g>
</g>
</svg>
