<svg xmlns="http://www.w3.org/2000/svg" class="icon" viewBox="0 0 1024 1280" version="1.1" x="0px" y="0px"><path fill="#000000" d="M942 254h-72v492a92.106 92.106 0 0 1-92 92H672.314L702 894.314 638.15 928l-47.434-90H429.284l-47.434 90L318 894.314 347.686 838H242a92.106 92.106 0 0 1-92-92V254H78v-72h398v-82h72v82h394v72z m-144 0H222v492a20.022 20.022 0 0 0 20 20h536a20.022 20.022 0 0 0 20-20V254zM509.456 710C396.168 710 304 618.038 304 505s92.168-205 205.456-205A206.6 206.6 0 0 1 686.27 400.548l-9.148 46.986c-18.02 13.718-52.892 37.256-82.148 56.648 30.142 17.466 65.72 37.92 82.108 46.738L692 599.16A204.928 204.928 0 0 1 509.456 710z m0-338a133 133 0 1 0 98.448 222.744c-41.32-23.55-96.566-55.876-99.666-57.694l-1.376-61.25c0.73-0.472 56.97-36.888 97.094-64.532a134.158 134.158 0 0 0-94.5-39.268z"/><text x="0" y="1039" fill="#000000" font-size="5px" font-weight="bold" font-family="'Helvetica Neue', Helvetica, Arial-Unicode, Arial, Sans-serif">Created by Fengquan Li</text><text x="0" y="1044" fill="#000000" font-size="5px" font-weight="bold" font-family="'Helvetica Neue', Helvetica, Arial-Unicode, Arial, Sans-serif">from the Noun Project</text></svg>