<?xml version="1.0" encoding="utf-8"?>
<!-- Generator: Adobe Illustrator 23.0.1, SVG Export Plug-In . SVG Version: 6.00 Build 0)  -->
<svg version="1.1" id="Layer_1" xmlns="http://www.w3.org/2000/svg" xmlns:xlink="http://www.w3.org/1999/xlink" x="0px" y="0px"
	 viewBox="0 0 50 62.5" style="enable-background:new 0 0 50 62.5;" xml:space="preserve">
<path d="M34.6,14.1l2.6-2.6l-2.6-2.6l1.5-1.5l2.6,2.6l2.6-2.6l1.5,1.5l-2.6,2.6l2.6,2.6l-1.5,1.5L38.8,13l-2.6,2.6L34.6,14.1z
	 M41.4,21.1l-2.6,2.6l-2.6-2.6l-1.5,1.5l2.6,2.6l-2.6,2.6l1.5,1.5l2.6-2.6l2.6,2.6l1.5-1.5l-2.6-2.6l2.6-2.6L41.4,21.1z M13.1,35.3
	l-2.6,2.6l-2.6-2.6l-1.5,1.5L9,39.4L6.4,42l1.5,1.5l2.6-2.6l2.6,2.6l1.5-1.5L12,39.4l2.6-2.6L13.1,35.3z M42.9,45.2l-1.8-1.8
	c-0.8,0.5-1.7,0.9-2.7,0.9c-2.7,0-4.8-2.2-4.8-4.8c0-1,0.3-1.9,0.8-2.7L32.7,35v9.6h-2v-11H18.6v11h-2v-11h-11v-2h11V19.5h-11v-2
	h9.5l-1.6-1.6c-0.7,0.5-1.6,0.8-2.6,0.8c-2.7,0-4.8-2.2-4.8-4.8c0-0.9,0.3-1.8,0.7-2.5L4.5,7L6,5.5l2.4,2.3C9.1,7.3,10,7,10.9,7
	c2.7,0,4.8,2.2,4.8,4.8c0,0.9-0.3,1.8-0.7,2.6l1.6,1.6V6.6h2v11h12.1v-11h2v11h11v2h-11v12.1h11v2h-9.3l1.6,1.5
	c0.7-0.4,1.5-0.7,2.4-0.7c2.7,0,4.8,2.2,4.8,4.8c0,0.9-0.2,1.7-0.6,2.4l1.9,1.9L42.9,45.2z M37.6,36.8l3.3,3.3
	c0.1-0.2,0.1-0.5,0.1-0.8c0-1.5-1.2-2.7-2.7-2.7C38.1,36.7,37.8,36.8,37.6,36.8z M30.7,19.5H20.2l2,2c0.7-0.5,1.6-0.7,2.5-0.7
	c2.7,0,4.8,2.2,4.8,4.8c0,0.9-0.3,1.8-0.7,2.5l1.9,1.9L30.7,19.5L30.7,19.5z M22,25.6c0,1.5,1.2,2.7,2.7,2.7c0.4,0,0.7-0.1,1-0.2
	l-3.5-3.5C22.1,24.9,22,25.2,22,25.6z M27.2,26.5c0.1-0.3,0.2-0.6,0.2-0.9c0-1.5-1.2-2.7-2.7-2.7c-0.3,0-0.6,0.1-0.9,0.2L27.2,26.5z
	 M9.9,9.4l3.5,3.5c0.1-0.3,0.2-0.6,0.2-1c0-1.5-1.2-2.7-2.7-2.7C10.6,9.2,10.2,9.2,9.9,9.4z M11.9,14.3l-3.5-3.4
	c-0.1,0.3-0.2,0.6-0.2,0.9c0,1.5,1.2,2.7,2.7,2.7C11.2,14.5,11.6,14.5,11.9,14.3z M18.6,31.7h10.7l-2-2c-0.8,0.5-1.7,0.8-2.6,0.8
	c-2.7,0-4.8-2.2-4.8-4.8c0-1,0.3-1.8,0.8-2.6l-2-2L18.6,31.7L18.6,31.7z M39.5,41.8L36,38.2c-0.2,0.3-0.3,0.7-0.3,1.2
	c0,1.5,1.2,2.7,2.7,2.7C38.8,42.1,39.2,42,39.5,41.8z"/>
</svg>
