<?xml version="1.0" encoding="utf-8"?>
<!-- Generator: Adobe Illustrator 23.0.1, SVG Export Plug-In . SVG Version: 6.00 Build 0)  -->
<svg version="1.1" id="Layer_1" xmlns="http://www.w3.org/2000/svg" xmlns:xlink="http://www.w3.org/1999/xlink" x="0px" y="0px"
	 viewBox="0 0 100 99.7" style="enable-background:new 0 0 100 99.7;" xml:space="preserve">
<style type="text/css">
	.st0{fill:none;stroke:#000000;stroke-linecap:round;stroke-linejoin:round;stroke-miterlimit:10;}
</style>
<path class="st0" d="M23.9,66C13.5,66,5.1,57.5,5.1,47.1c0-10.4,8.4-18.8,18.8-18.8s18.8,8.4,18.8,18.8C42.7,57.5,34.3,66,23.9,66z
	 M94,47.1c0-10.4-8.4-18.8-18.8-18.8s-18.8,8.4-18.8,18.8c0,10.4,8.4,18.8,18.8,18.8S94,57.5,94,47.1z M56.3,46.1
	c0-3.7-3-6.8-6.8-6.8s-6.8,3-6.8,6.8 M39.9,47.1c0-8.8-7.2-16-16-16s-16,7.2-16,16c0,8.8,7.2,16,16,16S39.9,56,39.9,47.1z
	 M91.1,47.1c0-8.8-7.2-16-16-16s-16,7.2-16,16c0,8.8,7.2,16,16,16S91.1,56,91.1,47.1z M36.9,47.1c0-7.2-5.8-13-13-13 M88.1,47.1
	c0-7.2-5.8-13-13-13 M36.9,49.2C36.9,49.2,36.8,49.2,36.9,49.2C36.8,49.3,36.9,49.3,36.9,49.2C36.9,49.3,36.9,49.3,36.9,49.2
	C36.9,49.2,36.9,49.2,36.9,49.2z M88.1,49.2C88.1,49.2,88.1,49.2,88.1,49.2C88.1,49.3,88.1,49.3,88.1,49.2
	C88.2,49.3,88.2,49.3,88.1,49.2C88.2,49.2,88.2,49.2,88.1,49.2z"/>
</svg>
