<?xml version="1.0" encoding="utf-8"?>
<!-- Generator: Adobe Illustrator 23.0.1, SVG Export Plug-In . SVG Version: 6.00 Build 0)  -->
<svg version="1.1" id="Layer_1" xmlns="http://www.w3.org/2000/svg" xmlns:xlink="http://www.w3.org/1999/xlink" x="0px" y="0px"
	 viewBox="0 0 100 125" style="enable-background:new 0 0 100 125;" xml:space="preserve">
<g>
	<path d="M76.6,46.7c0-7.9-6.4-14.3-14.3-14.3c-6.5,0-11.9,4.3-13.6,10.2c-2.3-1-4.9-1.6-7.6-1.6c-9,0-16.6,6.4-18.5,14.8
		c-6.6,0.1-11.9,5.5-11.9,12.2c0,6.7,5.5,12.2,12.2,12.2h36.4c6.7,0,12.2-5.5,12.2-12.2c0-3.3-1.3-6.2-3.4-8.4
		C73.1,57.5,76.6,52.5,76.6,46.7z M59.3,76.3H22.9c-4.5,0-8.2-3.7-8.2-8.2c0-4.3,3.3-7.8,7.5-8.2c0,0,0,0,0,0v0.9v1.6v0.4
		c0,1.1,0.9,2,2,2c1.1,0,2-0.9,2-2v-0.4v-1.6V60c0-8.2,6.7-14.9,14.9-14.9S56,51.8,56,60v0.8c0,0,0,0,0,0c0,0,0,0,0,0.1v2
		c0,1.1,0.9,2,2,2c1.1,0,2-0.9,2-2v-1.4v-0.6V60c0,0,0,0,0,0c4.2,0.4,7.5,3.9,7.5,8.2C67.5,72.6,63.8,76.3,59.3,76.3z M63.8,56.8
		c-1.3-0.5-2.8-0.9-4.3-0.9c-1-4.6-3.7-8.5-7.3-11.2c0.9-4.7,5.1-8.3,10.1-8.3c5.7,0,10.3,4.6,10.3,10.3
		C72.6,51.8,68.8,56.1,63.8,56.8z"/>
	<path d="M62.3,29.5c1.1,0,2-0.9,2-2v-5.8c0-1.1-0.9-2-2-2c-1.1,0-2,0.9-2,2v5.8C60.3,28.6,61.2,29.5,62.3,29.5z"/>
	<path d="M87.3,44.7h-5.8c-1.1,0-2,0.9-2,2c0,1.1,0.9,2,2,2h5.8c1.1,0,2-0.9,2-2C89.3,45.6,88.4,44.7,87.3,44.7z"/>
	<path d="M77.3,34.6l4.1-4.1c0.8-0.8,0.8-2,0-2.8c-0.8-0.8-2-0.8-2.8,0l-4.1,4.1c-0.8,0.8-0.8,2,0,2.8
		C75.2,35.3,76.5,35.3,77.3,34.6z"/>
	<path d="M77.3,58.8c-0.8-0.8-2-0.8-2.8,0c-0.8,0.8-0.8,2,0,2.8l4.1,4.1c0.8,0.8,2,0.8,2.8,0c0.8-0.8,0.8-2,0-2.8L77.3,58.8z"/>
	<path d="M47.3,34.6c0.8,0.8,2,0.8,2.8,0c0.8-0.8,0.8-2,0-2.8l-4.1-4.1c-0.8-0.8-2-0.8-2.8,0c-0.8,0.8-0.8,2,0,2.8L47.3,34.6z"/>
</g>
<text transform="matrix(1 0 0 1 683 384)" style="font-family:'MyriadPro-Regular'; font-size:12px;">http://www.rodrigojaguilar.com/weather_app/index.html</text>
</svg>
